<?xml version="1.0" encoding="UTF-8"?>
<svg version="1.1" xmlns="http://www.w3.org/2000/svg" width="512" height="512">
<path d="M0 0 C0.90121582 0.20898926 1.80243164 0.41797852 2.73095703 0.63330078 C52.08954059 12.5039023 96.02193593 44.62441113 123.1875 87.375 C124.48111735 89.57006438 125.75015673 91.77971955 127 94 C127.38752441 94.68223633 127.77504883 95.36447266 128.17431641 96.06738281 C136.75697085 111.3038548 143.45260158 127.1043364 147.8125 144.0625 C147.99530518 144.76753662 148.17811035 145.47257324 148.36645508 146.19897461 C152.15728172 162.07207534 153.55682258 177.97071664 153.4375 194.25 C153.43293793 195.58363586 153.43293793 195.58363586 153.42828369 196.94421387 C153.35614587 211.26725931 152.45920614 225.04631039 149 239 C148.77505859 239.91604004 148.55011719 240.83208008 148.31835938 241.77587891 C135.58244621 292.18448289 103.84305757 337.46792732 58.97021484 364.34838867 C36.50914322 377.4237296 12.71453359 386.71618982 -13 391 C-14.92972656 391.33644531 -14.92972656 391.33644531 -16.8984375 391.6796875 C-59.71211863 397.9180083 -103.13037548 389.46545571 -141 369 C-141.60924316 368.67531738 -142.21848633 368.35063477 -142.84619141 368.01611328 C-151.49066288 363.38127389 -159.31895764 358.07730824 -167 352 C-172.47655917 354.3399118 -176.47598862 358.76141599 -180.70117188 362.83618164 C-181.72773459 363.81468491 -182.76749008 364.77954445 -183.8203125 365.72973633 C-190.38272233 371.55314894 -190.38272233 371.55314894 -193.64135742 379.4699707 C-193.62253997 382.69727757 -193.33259574 385.79370093 -193 389 C-194.54423418 404.94564775 -217.37717801 420.57863863 -228.1015625 431.33984375 C-229.11644708 432.35878739 -230.13130252 433.37776004 -231.14612961 434.39676094 C-235.9078827 439.1774592 -240.6719716 443.95581434 -245.43900454 448.73124784 C-250.90902539 454.21107486 -256.37062314 459.69912471 -261.82539046 465.19413465 C-266.07003411 469.46900064 -270.32238499 473.73610196 -274.5805124 477.99753672 C-277.1124373 480.53179998 -279.64102016 483.06918856 -282.16142654 485.61491203 C-284.96845934 488.4497001 -287.79130741 491.26822367 -290.61572266 494.08569336 C-291.84569221 495.33487801 -291.84569221 495.33487801 -293.10050964 496.60929871 C-298.89511399 502.3522508 -304.64215726 507.29344141 -312.87890625 508.62890625 C-314.09449219 508.60699219 -315.31007813 508.58507812 -316.5625 508.5625 C-317.78066406 508.56378906 -318.99882812 508.56507813 -320.25390625 508.56640625 C-329.92013007 507.10488127 -335.6518509 500.97869875 -342.21044922 494.31103516 C-343.74683997 492.75320413 -345.30344829 491.21791199 -346.86328125 489.68359375 C-353.05094852 483.51775017 -358.22015755 478.20612062 -359.56640625 469.21875 C-359.56511719 467.9915625 -359.56382812 466.764375 -359.5625 465.5 C-359.58441406 464.2728125 -359.60632813 463.045625 -359.62890625 461.78125 C-358.02630359 452.14572594 -350.16274502 445.77688967 -343.4765625 439.21875 C-342.44599168 438.19633746 -341.4161692 437.17317013 -340.38705444 436.14929199 C-337.690238 433.4694875 -334.98497105 430.79839148 -332.27728271 428.12957764 C-327.9501299 423.86188701 -323.63567567 419.58137149 -319.32200241 415.30006409 C-317.82770404 413.81953546 -316.32955021 412.34300318 -314.83071899 410.86706543 C-310.31351023 406.39754819 -305.96081985 401.886867 -301.82772827 397.06173706 C-297.90799653 392.6401519 -293.67527472 388.51048634 -289.5 384.33203125 C-288.4953728 383.32418162 -287.49081688 382.31626093 -286.48632812 381.30827332 C-284.39368901 379.20968885 -282.299037 377.11313776 -280.203125 375.01782227 C-277.53194318 372.34674237 -274.86773032 369.66882551 -272.2052002 366.98912525 C-270.13759198 364.91035019 -268.06540553 362.83618495 -265.99194336 360.76325035 C-265.00804538 359.77818131 -264.02574732 358.79151129 -263.04516602 357.80314064 C-247.38327829 342.02841516 -247.38327829 342.02841516 -235.875 341.8125 C-232 342 -232 342 -229.63012695 342.84741211 C-226.7504199 343.30088087 -226.7504199 343.30088087 -224.13745117 340.81860352 C-223.09044214 339.77064577 -222.05979883 338.70617127 -221.04296875 337.62890625 C-220.49514236 337.07259018 -219.94731598 336.51627411 -219.38288879 335.94309998 C-217.63652002 334.16314628 -215.91215005 332.36348112 -214.1875 330.5625 C-213.00725037 329.35215765 -211.82562496 328.14315524 -210.64257812 326.93554688 C-207.74552584 323.97234296 -204.8680339 320.99128825 -202 318 C-206.19853604 311.66896258 -206.19853604 311.66896258 -210.4921875 305.40234375 C-216.54965151 296.64199235 -221.53442259 287.66305454 -226 278 C-226.53367188 276.86046875 -227.06734375 275.7209375 -227.6171875 274.546875 C-248.63114641 227.72821006 -250.04963974 172.14153148 -231.93408203 124.17407227 C-218.67635934 90.5104053 -197.68298069 60.32124267 -169 38 C-168.20045898 37.36989014 -168.20045898 37.36989014 -167.38476562 36.72705078 C-120.85002568 0.28564728 -57.64356967 -13.546706 0 0 Z M-167.83203125 58.984375 C-169.90222547 60.90909611 -172.02953109 62.73747487 -174.1875 64.5625 C-206.65051567 93.00813649 -225.06778831 139.82468011 -228 182 C-228.53230248 196.07347312 -228.36072794 210.09866614 -226 224 C-225.88172852 224.72251953 -225.76345703 225.44503906 -225.64160156 226.18945312 C-219.46363465 262.62845392 -202.06167452 294.2223191 -177 321 C-175.69289063 322.40572266 -175.69289063 322.40572266 -174.359375 323.83984375 C-143.07572559 356.71354114 -97.17926165 376.03352719 -52.01171875 377.203125 C-4.29257454 377.79609588 41.25252417 362.83826969 76.69140625 330.12109375 C78.81495436 328.17001655 80.98675681 326.30031718 83.1875 324.4375 C114.52909347 297.05974564 132.91242265 252.72619558 137 212 C139.37504813 160.58102698 126.83836559 112.31762897 91.89599609 73.34155273 C89.63147263 70.86119064 87.31715329 68.43133185 85 66 C84.23429687 65.16984375 83.46859375 64.3396875 82.6796875 63.484375 C71.27661036 51.50148037 57.47717556 41.90110259 43 34 C42.37303223 33.65630371 41.74606445 33.31260742 41.10009766 32.95849609 C14.63755347 18.64951825 -14.33642644 11.54624421 -44.375 11.625 C-45.16036133 11.62554382 -45.94572266 11.62608765 -46.75488281 11.62664795 C-91.64605132 11.76880938 -134.88917105 28.30392228 -167.83203125 58.984375 Z M-191 330 C-198.59 337.59 -206.18 345.18 -214 353 C-212.34136748 356.31726504 -211.4143765 357.82103117 -208.875 360.25 C-207.92625 361.1575 -206.9775 362.065 -206 363 C-202.23396131 361.43717018 -199.86360849 359.0936525 -197.015625 356.2109375 C-196.55516785 355.74765045 -196.09471069 355.2843634 -195.62030029 354.80703735 C-194.15874922 353.33434102 -192.70432832 351.85482597 -191.25 350.375 C-190.25697389 349.37193678 -189.26348911 348.36932743 -188.26953125 347.3671875 C-185.84102059 344.91669165 -183.41885325 342.4600333 -181 340 C-181.91122727 338.89134015 -182.82926659 337.78827781 -183.75 336.6875 C-184.26046875 336.07261719 -184.7709375 335.45773437 -185.296875 334.82421875 C-187.23593441 332.64044184 -187.23593441 332.64044184 -191 330 Z M-240.875 359.9375 C-241.57625 360.618125 -242.2775 361.29875 -243 362 C-241.36221955 366.19625909 -238.26676818 368.98676785 -235.1171875 372.078125 C-234.54292023 372.64956238 -233.96865295 373.22099976 -233.37698364 373.80975342 C-231.5476419 375.62792945 -229.71145807 377.43901492 -227.875 379.25 C-226.63105226 380.48391329 -225.3875573 381.71828322 -224.14453125 382.953125 C-221.10157633 385.97406743 -218.05246746 388.98867092 -215 392 C-211.83884224 390.63016497 -211.0072908 390.0109362 -209 387 C-209.15114844 381.69709553 -211.03449188 379.3249784 -214.69921875 375.63671875 C-215.17188675 375.15926712 -215.64455475 374.68181549 -216.13154602 374.18989563 C-217.12998229 373.18807083 -218.13470532 372.19247661 -219.14526367 371.20288086 C-220.68321223 369.6917131 -222.19264799 368.1557133 -223.70117188 366.61523438 C-224.67808847 365.64162207 -225.65655509 364.66956207 -226.63671875 363.69921875 C-227.52061279 362.82096436 -228.40450684 361.94270996 -229.31518555 361.0378418 C-233.47100853 357.88346748 -236.45129584 356.95630807 -240.875 359.9375 Z M-257.7265625 376.53125 C-258.66628906 377.50578125 -258.66628906 377.50578125 -259.625 378.5 C-260.25664062 379.1496875 -260.88828125 379.799375 -261.5390625 380.46875 C-262.02117187 380.9740625 -262.50328125 381.479375 -263 382 C-257.47349666 388.74080425 -251.30550441 394.8071129 -245.125 400.9375 C-244.04403726 402.01343727 -242.96330617 403.08960731 -241.8828125 404.16601562 C-239.25787359 406.78003292 -236.62981372 409.39088596 -234 412 C-232.82174642 411.09827532 -231.65768423 410.17798498 -230.5 409.25 C-229.8503125 408.73953125 -229.200625 408.2290625 -228.53125 407.703125 C-226.55427485 405.88595704 -226.55427485 405.88595704 -227 402 C-228.88124981 399.74520328 -230.74317591 397.74441607 -232.8359375 395.703125 C-233.43048737 395.10949158 -234.02503723 394.51585815 -234.63760376 393.90423584 C-235.89561332 392.65226617 -237.15847799 391.40515894 -238.42578125 390.16259766 C-240.37102779 388.25389758 -242.29975744 386.3296406 -244.2265625 384.40234375 C-245.44958029 383.18915527 -246.67350825 381.97688349 -247.8984375 380.765625 C-248.47870697 380.18758118 -249.05897644 379.60953735 -249.65682983 379.01397705 C-253.34668592 374.76487021 -253.34668592 374.76487021 -257.7265625 376.53125 Z M-280.34049988 398.04722595 C-280.9363942 398.64402664 -281.53228851 399.24082733 -282.14624023 399.85571289 C-282.7756955 400.47845093 -283.40515076 401.10118896 -284.05368042 401.74279785 C-286.14403474 403.81407394 -288.22668548 405.89289303 -290.30859375 407.97265625 C-291.7557146 409.41335346 -293.20298732 410.85389815 -294.65040588 412.29429626 C-297.68955521 415.32144645 -300.72451606 418.35272807 -303.75708008 421.38647461 C-307.63856621 425.26816349 -311.53359269 429.13594414 -315.43238735 433.00023746 C-318.42900372 435.97457771 -321.41644626 438.95800357 -324.40141487 441.94402885 C-325.83308585 443.3733428 -327.26799412 444.79942184 -328.70620537 446.22215462 C-330.72192099 448.21820758 -332.72448877 450.22661973 -334.72436523 452.23852539 C-335.31823532 452.82115646 -335.91210541 453.40378754 -336.52397156 454.0040741 C-340.20030647 457.73667186 -342.39990919 460.97674875 -344 466 C-342.51167918 470.50343844 -339.95915278 473.40961616 -336.62109375 476.70703125 C-335.78255859 477.54041016 -334.94402344 478.37378906 -334.08007812 479.23242188 C-332.77200195 480.50956055 -332.77200195 480.50956055 -331.4375 481.8125 C-330.12362305 483.11864258 -330.12362305 483.11864258 -328.78320312 484.45117188 C-323.6386296 489.98385911 -323.6386296 489.98385911 -316.81480408 492.45263672 C-311.53391498 491.82604509 -309.54649179 489.48884362 -305.96313477 485.7578125 C-305.29886978 485.0945697 -304.6346048 484.4313269 -303.95021057 483.74798584 C-301.76360244 481.55650959 -299.60281705 479.34130828 -297.44140625 477.125 C-295.92836689 475.59890198 -294.41377227 474.07434447 -292.89768982 472.55126953 C-288.91515962 468.54203625 -284.95409782 464.51222776 -280.99713135 460.4777832 C-276.95419478 456.36318888 -272.89132284 452.26838532 -268.83007812 448.171875 C-260.86707245 440.13383761 -252.92660462 432.07392473 -245 424 C-245.94148613 422.8930252 -246.88421539 421.78710762 -247.82745361 420.68162537 C-248.35229969 420.06565207 -248.87714577 419.44967878 -249.41789627 418.81503963 C-253.12535864 414.56172108 -257.18118094 410.63289374 -261.16943359 406.64526367 C-262.76559744 405.04688087 -264.35355314 403.44061854 -265.94140625 401.83398438 C-266.95524079 400.81722113 -267.96954635 399.80092728 -268.984375 398.78515625 C-269.89928711 397.86613525 -270.81419922 396.94711426 -271.75683594 396.00024414 C-275.77342883 392.41862186 -276.9402638 394.70017547 -280.34049988 398.04722595 Z " fill="#000000" transform="translate(359,4)"/>
<path d="M0 0 C0.88558594 0.66128906 1.77117187 1.32257813 2.68359375 2.00390625 C36.07984532 28.15520577 57.79069475 65.9216578 63.62890625 107.92578125 C68.73931512 150.26148418 58.83482841 194.31690619 32.35791016 228.29980469 C28.06506065 233.67474248 23.59755569 238.88423784 19 244 C18.09701172 245.01320313 18.09701172 245.01320313 17.17578125 246.046875 C-8.57426405 273.28873653 -48.61493606 290.1052026 -85.60473633 292.20458984 C-89.28087883 292.30222383 -92.94762335 292.3292862 -96.625 292.3125 C-98.5894104 292.30404053 -98.5894104 292.30404053 -100.59350586 292.29541016 C-124.56567455 291.99783884 -147.46685212 286.61096215 -169 276 C-170.12792969 275.44441406 -171.25585938 274.88882812 -172.41796875 274.31640625 C-202.15919747 258.93056152 -227.05696346 233.94294478 -242 204 C-242.34901367 203.30326172 -242.69802734 202.60652344 -243.05761719 201.88867188 C-262.18198008 163.00540502 -264.47729025 117.66001404 -250.92724609 76.62011719 C-235.99359063 34.42212076 -204.86932437 1.69935082 -164.8125 -17.625 C-111.64488884 -42.38751719 -46.70039086 -35.00991094 0 0 Z M-203 29 C-203.76441406 29.75152344 -204.52882812 30.50304687 -205.31640625 31.27734375 C-230.19422973 57.3122753 -243.47311513 94.04470794 -243.3125 129.6875 C-243.30686035 131.0060498 -243.3012207 132.32459961 -243.29541016 133.68310547 C-243.17066754 143.74279491 -242.45012687 153.24165956 -240 163 C-239.80664062 163.78455566 -239.61328125 164.56911133 -239.4140625 165.37744141 C-229.66545364 203.67232391 -205.13229854 236.23697399 -171.26904297 256.55664062 C-148.7636742 269.56448541 -123.7958561 276.43421819 -97.8125 276.3125 C-96.54092041 276.30686035 -95.26934082 276.3012207 -93.95922852 276.29541016 C-84.02229084 276.16785971 -74.64402546 275.39351946 -65 273 C-64.22462891 272.81195801 -63.44925781 272.62391602 -62.65039062 272.43017578 C-44.5305419 267.88575243 -26.9749175 260.26553427 -12 249 C-11.15695312 248.36578125 -10.31390625 247.7315625 -9.4453125 247.078125 C0.88516202 239.0325841 10.04194585 230.41460691 18 220 C18.66644531 219.14921875 19.33289063 218.2984375 20.01953125 217.421875 C43.31450076 186.72948914 52.72114623 147.78509668 47.75390625 109.75 C42.95313036 77.33969865 27.70970953 49.24125237 5 26 C4.1788269 25.14486816 4.1788269 25.14486816 3.34106445 24.27246094 C-21.92071109 -1.63814337 -58.81006182 -15.48568548 -94.66186523 -16.23461914 C-136.28698039 -16.51596044 -173.53148432 -0.03579151 -203 29 Z " fill="#000000" transform="translate(411,68)"/>
<path d="M0 0 C2.0815902 2.67633026 1.99587591 4.11753668 1.875 7.5625 C1 11 1 11 -0.48828125 12.66015625 C-4.22967164 14.65595237 -7.8792872 14.62208749 -12.0625 14.875 C-26.3965262 16.0333184 -40.21219346 19.27064552 -53 26 C-54.29357422 26.62455078 -54.29357422 26.62455078 -55.61328125 27.26171875 C-80.79076127 39.97798579 -97.18235095 62.42653838 -106.25 88.609375 C-108.7331198 96.97164609 -109.69774581 105.16805814 -110.22973633 113.85620117 C-110.56234262 118.62925897 -110.88653831 122.13340668 -114 126 C-117.09173752 127.54586876 -119.59429552 127.29359521 -123 127 C-125.1953125 125.515625 -125.1953125 125.515625 -127 123 C-127.41204771 119.99144577 -127.56962041 117.43935047 -127.5 114.4375 C-127.48791504 113.60049561 -127.47583008 112.76349121 -127.46337891 111.90112305 C-126.45237529 79.1231603 -109.82801722 49.63499642 -86.375 27.5 C-69.28341999 12.54816957 -23.01516884 -14.15534721 0 0 Z " fill="#000000" transform="translate(320,79)"/>
</svg>
